<svg xmlns="http://www.w3.org/2000/svg" viewBox="0 0 440 300" role="img" aria-label="Setup diagram"><defs><marker id="ah" viewBox="0 0 10 10" refX="8.5" refY="5" markerWidth="5.5" markerHeight="5.5" orient="auto-start-reverse"><path d="M0,1 L9,5 L0,9 z" fill="#fff"/></marker><marker id="ahp" viewBox="0 0 10 10" refX="8.5" refY="5" markerWidth="5.5" markerHeight="5.5" orient="auto-start-reverse"><path d="M0,1 L9,5 L0,9 z" fill="rgba(255,255,255,.72)"/></marker></defs><rect x="20" y="34" width="400" height="232" rx="4" fill="#3f7d55"/><rect x="20" y="92" width="400" height="58" fill="#438457"/><rect x="20" y="208" width="400" height="58" fill="#438457"/><rect x="20" y="34" width="400" height="232" rx="4" fill="none" stroke="rgba(255,255,255,.62)" stroke-width="2"/><rect x="74" y="34" width="52" height="11" fill="rgba(13,36,64,.45)" stroke="#fff" stroke-width="2.8" stroke-linejoin="round"/><rect x="194" y="34" width="52" height="11" fill="rgba(13,36,64,.45)" stroke="#fff" stroke-width="2.8" stroke-linejoin="round"/><rect x="314" y="34" width="52" height="11" fill="rgba(13,36,64,.45)" stroke="#fff" stroke-width="2.8" stroke-linejoin="round"/><text x="220" y="24" text-anchor="middle" fill="#7a8594" font-size="11.5" letter-spacing="0.6" font-family="'Oswald','Arial Narrow',Arial,sans-serif" font-weight="600">THREE GOALS TO ATTACK</text><rect x="194" y="255" width="52" height="11" fill="rgba(13,36,64,.45)" stroke="#fff" stroke-width="2.8" stroke-linejoin="round"/><text x="220" y="290" text-anchor="middle" fill="#7a8594" font-size="11.5" letter-spacing="0.6" font-family="'Oswald','Arial Narrow',Arial,sans-serif" font-weight="600">ONE GOAL TO COUNTER INTO</text><circle cx="178" cy="196" r="9.5" fill="#fff" stroke="#0d2440" stroke-width="2"/><circle cx="189" cy="204" r="4.4" fill="#fff" stroke="#0d2440" stroke-width="1.6"/><circle cx="189" cy="204" r="1.5" fill="#0d2440"/><circle cx="262" cy="186" r="9.5" fill="#fff" stroke="#0d2440" stroke-width="2"/><rect x="160.5" y="116.5" width="15" height="15" rx="2" fill="#0d2440" stroke="#fff" stroke-width="2" transform="rotate(45 168 124)"/><rect x="250.5" y="104.5" width="15" height="15" rx="2" fill="#0d2440" stroke="#fff" stroke-width="2" transform="rotate(45 258 112)"/><line x1="196" y1="192" x2="250" y2="188" stroke="#fff" stroke-width="2.4" marker-end="url(#ah)"/><path d="M272,176 L276.895,174.903 L279.741,172.763 L279.751,169.18 L277.8,164.6 L275.892,160.042 L275.982,156.5 L278.835,154.364 L283.6,153.2 L288.321,152.014 L291.096,149.838 L291.178,146.292 L289.4,141.8 L287.665,137.33 L287.827,133.824 L290.609,131.652 L295.2,130.4 L299.748,129.126 L302.451,126.913 L302.605,123.404 L301,119 L299.439,114.618 L299.672,111.149 L302.382,108.94 L306.8,107.6 L311.175,106.238 L313.805,103.989 L314.031,100.516 L312.6,96.2 L311.212,91.9061 L311.517,88.4736 L314.155,86.2282 L318.4,84.8 L322.601,83.3498 L325.16,81.064 L325.458,77.6278 L324.2,73.4 L322.985,69.1943 L323.362,65.7983 L325.929,63.5163 L330,62" fill="none" stroke="#fff" stroke-width="2.4" stroke-linecap="round" marker-end="url(#ah)"/></svg>
