<svg xmlns="http://www.w3.org/2000/svg" viewBox="0 0 440 300" role="img" aria-label="Setup diagram"><defs><marker id="ah" viewBox="0 0 10 10" refX="8.5" refY="5" markerWidth="5.5" markerHeight="5.5" orient="auto-start-reverse"><path d="M0,1 L9,5 L0,9 z" fill="#fff"/></marker><marker id="ahp" viewBox="0 0 10 10" refX="8.5" refY="5" markerWidth="5.5" markerHeight="5.5" orient="auto-start-reverse"><path d="M0,1 L9,5 L0,9 z" fill="rgba(255,255,255,.72)"/></marker></defs><rect x="20" y="34" width="400" height="232" rx="4" fill="#3f7d55"/><rect x="20" y="92" width="400" height="58" fill="#438457"/><rect x="20" y="208" width="400" height="58" fill="#438457"/><rect x="20" y="34" width="400" height="232" rx="4" fill="none" stroke="rgba(255,255,255,.62)" stroke-width="2"/><rect x="20" y="34" width="400" height="44" fill="rgba(255,255,255,.16)"/><rect x="20" y="34" width="400" height="44" fill="none" stroke="rgba(255,255,255,.62)" stroke-width="2" stroke-dasharray="5 5"/><text x="220" y="60" text-anchor="middle" fill="rgba(255,255,255,.9)" font-size="11.5" letter-spacing="0.6" font-family="'Oswald','Arial Narrow',Arial,sans-serif" font-weight="600">SCORING ZONE</text><rect x="189" y="255" width="62" height="11" fill="rgba(13,36,64,.45)" stroke="#fff" stroke-width="2.8" stroke-linejoin="round"/><rect x="154.5" y="182.5" width="15" height="15" rx="2" fill="#0d2440" stroke="#fff" stroke-width="2" transform="rotate(45 162 190)"/><rect x="198.5" y="208.5" width="15" height="15" rx="2" fill="#0d2440" stroke="#fff" stroke-width="2" transform="rotate(45 206 216)"/><rect x="292.5" y="180.5" width="15" height="15" rx="2" fill="#0d2440" stroke="#fff" stroke-width="2" transform="rotate(45 300 188)"/><circle cx="150" cy="116" r="9.5" fill="#fff" stroke="#0d2440" stroke-width="2"/><circle cx="161" cy="124" r="4.4" fill="#fff" stroke="#0d2440" stroke-width="1.6"/><circle cx="161" cy="124" r="1.5" fill="#0d2440"/><circle cx="244" cy="104" r="9.5" fill="#fff" stroke="#0d2440" stroke-width="2"/><circle cx="340" cy="128" r="9.5" fill="#fff" stroke="#0d2440" stroke-width="2"/><line x1="166" y1="124" x2="232" y2="110" stroke="#fff" stroke-width="2.4" marker-end="url(#ah)"/><path d="M250,118 L245.723,120.662 L243.722,123.644 L244.871,127.069 L248.2,130.8 L251.481,134.525 L252.542,137.937 L250.533,140.918 L246.4,143.6 L242.315,146.289 L240.394,149.282 L241.464,152.696 L244.6,156.4 L247.688,160.098 L248.67,163.499 L246.74,166.491 L242.8,169.2 L238.908,171.916 L237.066,174.92 L238.056,178.323 L241,182 L243.896,185.67 L244.798,189.061 L242.948,192.064 L239.2,194.8 L235.501,197.543 L233.739,200.559 L234.649,203.95 L237.4,207.6 L240.103,211.243 L240.925,214.622 L239.155,217.637 L235.6,220.4 L232.093,223.17 L230.411,226.197 L231.241,229.577 L233.8,233.2 L236.311,236.816 L237.053,240.184 L235.362,243.21 L232,246" fill="none" stroke="#fff" stroke-width="2.4" stroke-linecap="round" marker-end="url(#ah)"/><line x1="312" y1="176" x2="352" y2="94" stroke="rgba(255,255,255,.72)" stroke-width="2.2" stroke-dasharray="6 5" marker-end="url(#ahp)"/><text x="220" y="290" text-anchor="middle" fill="#7a8594" font-size="11.5" letter-spacing="0.6" font-family="'Oswald','Arial Narrow',Arial,sans-serif" font-weight="600">DEFENDERS BREAK OUT TO THE ZONE</text></svg>
