<svg xmlns="http://www.w3.org/2000/svg" viewBox="0 0 440 300" role="img" aria-label="Setup diagram"><defs><marker id="ah" viewBox="0 0 10 10" refX="8.5" refY="5" markerWidth="5.5" markerHeight="5.5" orient="auto-start-reverse"><path d="M0,1 L9,5 L0,9 z" fill="#fff"/></marker><marker id="ahp" viewBox="0 0 10 10" refX="8.5" refY="5" markerWidth="5.5" markerHeight="5.5" orient="auto-start-reverse"><path d="M0,1 L9,5 L0,9 z" fill="rgba(255,255,255,.72)"/></marker></defs><rect x="20" y="34" width="400" height="232" rx="4" fill="#3f7d55"/><rect x="20" y="92" width="400" height="58" fill="#438457"/><rect x="20" y="208" width="400" height="58" fill="#438457"/><rect x="20" y="34" width="400" height="232" rx="4" fill="none" stroke="rgba(255,255,255,.62)" stroke-width="2"/><rect x="100" y="34" width="56" height="11" fill="rgba(13,36,64,.45)" stroke="#fff" stroke-width="2.8" stroke-linejoin="round"/><rect x="100" y="255" width="56" height="11" fill="rgba(13,36,64,.45)" stroke="#fff" stroke-width="2.8" stroke-linejoin="round"/><rect x="284" y="34" width="56" height="11" fill="rgba(13,36,64,.45)" stroke="#fff" stroke-width="2.8" stroke-linejoin="round"/><rect x="284" y="255" width="56" height="11" fill="rgba(13,36,64,.45)" stroke="#fff" stroke-width="2.8" stroke-linejoin="round"/><circle cx="172" cy="196" r="9.5" fill="#fff" stroke="#0d2440" stroke-width="2"/><circle cx="183" cy="204" r="4.4" fill="#fff" stroke="#0d2440" stroke-width="1.6"/><circle cx="183" cy="204" r="1.5" fill="#0d2440"/><circle cx="268" cy="214" r="9.5" fill="#fff" stroke="#0d2440" stroke-width="2"/><rect x="202.5" y="126.5" width="15" height="15" rx="2" fill="#0d2440" stroke="#fff" stroke-width="2" transform="rotate(45 210 134)"/><rect x="254.5" y="168.5" width="15" height="15" rx="2" fill="#0d2440" stroke="#fff" stroke-width="2" transform="rotate(45 262 176)"/><path d="M186,190 L188.378,185.783 L188.653,182.485 L186.007,180.466 L181.333,179.333 L176.696,178.185 L174.119,176.136 L174.4,172.835 L176.667,168.667 L178.896,164.514 L179.11,161.244 L176.526,159.197 L172,158 L167.512,156.787 L164.995,154.71 L165.215,151.437 L167.333,147.333 L169.414,143.246 L169.566,140.002 L167.044,137.929 L162.667,136.667 L158.327,135.388 L155.872,133.285 L156.03,130.039 L158,126 L159.932,121.977 L160.023,118.761 L157.562,116.66 L153.333,115.333 L149.142,113.99 L146.748,111.86 L146.846,108.64 L148.667,104.667 L150.451,100.709 L150.48,97.5192 L148.08,95.392 L144,94 L139.957,92.5918 L137.625,90.4349 L137.661,87.2422 L139.333,83.3333 L140.969,79.4407 L140.937,76.2777 L138.598,74.1236 L134.667,72.6667 L130.772,71.1935 L128.502,69.0097 L128.476,65.8439 L130,62" fill="none" stroke="#fff" stroke-width="2.4" stroke-linecap="round" marker-end="url(#ah)"/><line x1="280" y1="206" x2="312" y2="246" stroke="rgba(255,255,255,.72)" stroke-width="2.2" stroke-dasharray="6 5" marker-end="url(#ahp)"/></svg>
